0
SECTION
2
HEADER
9
$INSUNITS
70
4
9
$ACADVER
1
AC1014
9
$HANDSEED
5
FFFF
0
ENDSEC
0
SECTION
2
TABLES
0
TABLE
2
VPORT
5
8
100
AcDbSymbolTable
0
ENDTAB
0
TABLE
2
LTYPE
5
5
100
AcDbSymbolTable
0
LTYPE
5
14
100
AcDbSymbolTableRecord
100
AcDbLinetypeTableRecord
2
BYBLOCK
70
0
0
LTYPE
5
15
100
AcDbSymbolTableRecord
100
AcDbLinetypeTableRecord
2
BYLAYER
70
0
0
ENDTAB
0
TABLE
2
LAYER
5
2
100
AcDbSymbolTable
70
2
0
LAYER
5
50
100
AcDbSymbolTableRecord
100
AcDbLayerTableRecord
2
0
70
0
6
CONTINUOUS
0
ENDTAB
0
TABLE
2
STYLE
5
3
100
AcDbSymbolTable
70
1
0
STYLE
5
11
100
AcDbSymbolTableRecord
100
AcDbTextStyleTableRecord
2
STANDARD
70
0
0
ENDTAB
0
TABLE
2
VIEW
5
6
100
AcDbSymbolTable
70
0
0
ENDTAB
0
TABLE
2
UCS
5
7
100
AcDbSymbolTable
70
0
0
ENDTAB
0
TABLE
2
APPID
5
9
100
AcDbSymbolTable
70
2
0
APPID
5
12
100
AcDbSymbolTableRecord
100
AcDbRegAppTableRecord
2
ACAD
70
0
0
ENDTAB
0
TABLE
2
DIMSTYLE
5
A
100
AcDbSymbolTable
70
1
0
ENDTAB
0
TABLE
2
BLOCK_RECORD
5
1
100
AcDbSymbolTable
70
1
0
BLOCK_RECORD
5
1F
100
AcDbSymbolTableRecord
100
AcDbBlockTableRecord
2
*MODEL_SPACE
0
BLOCK_RECORD
5
1B
100
AcDbSymbolTableRecord
100
AcDbBlockTableRecord
2
*PAPER_SPACE
0
ENDTAB
0
ENDSEC
0
SECTION
2
BLOCKS
0
BLOCK
5
20
100
AcDbEntity
100
AcDbBlockBegin
2
*MODEL_SPACE
0
ENDBLK
5
21
100
AcDbEntity
100
AcDbBlockEnd
0
BLOCK
5
1C
100
AcDbEntity
100
AcDbBlockBegin
2
*PAPER_SPACE
0
ENDBLK
5
1D
100
AcDbEntity
100
AcDbBlockEnd
0
ENDSEC
0
SECTION
2
ENTITIES
0
LWPOLYLINE
5
100
100
AcDbEntity
8
0
100
AcDbPolyline
90
4
70
1
43
0.0
10
-189.29999999999893
20
211.91406250000014
10
-189.29999999999896
20
208.08593750000014
42
-0.99999999999999989
10
-195.69999999999897
20
208.08593750000014
10
-195.69999999999902
20
211.91406250000011
42
-0.99999999999999989
0
LWPOLYLINE
5
101
100
AcDbEntity
8
0
100
AcDbPolyline
90
4
70
1
43
0.0
10
189.30000000000001
20
208.08593750000014
10
189.30000000000004
20
211.91406250000014
42
-0.99999999999999989
10
195.70000000000005
20
211.91406250000014
10
195.70000000000007
20
208.08593750000011
42
-0.99999999999999989
0
LWPOLYLINE
5
102
100
AcDbEntity
8
0
100
AcDbPolyline
90
8
70
1
43
0.0
10
397.99999999999989
20
-474.99999999999994
42
0.4142135623730534
10
399.99999999999994
20
-472.99999999999989
10
400.00000000000108
20
473.00000000000011
42
0.4142135623730534
10
398.00000000000006
20
475.00000000000011
10
-397.99999999999903
20
475.00000000000011
42
0.41421356237306384
10
-399.99999999999898
20
473.00000000000023
10
-399.99999999999915
20
-472.99999999999983
42
0.41421356237307422
10
-397.99999999999909
20
-474.99999999999977
0
CIRCLE
5
103
100
AcDbEntity
8
0
100
AcDbCircle
10
24.500000000000455
20
-429.49999999999983
30
7.1054273576010019e-14
40
7.5
210
-2.2502061282493156e-31
220
-3.9443045261050586e-31
230
1
0
CIRCLE
5
104
100
AcDbEntity
8
0
100
AcDbCircle
10
-24.499999999999478
20
185.50000000000011
30
7.1054273576010019e-14
40
7.5
210
-2.2502061282493156e-31
220
-3.9443045261050586e-31
230
1
0
CIRCLE
5
105
100
AcDbEntity
8
0
100
AcDbCircle
10
24.500000000000526
20
185.50000000000011
30
0
40
7.5
210
-2.2502061282493156e-31
220
-3.9443045261050586e-31
230
1
0
CIRCLE
5
106
100
AcDbEntity
8
0
100
AcDbCircle
10
-351.99999999999903
20
210.00000000000014
30
7.1054273576010019e-14
40
5.4999999999999707
210
-2.2502061282493156e-31
220
-3.9443045261050586e-31
230
1
0
CIRCLE
5
107
100
AcDbEntity
8
0
100
AcDbCircle
10
-98.499999999999432
20
-65.999999999999943
30
-7.1054273576010019e-14
40
7.5
210
-2.2502061282493156e-31
220
-3.9443045261050586e-31
230
1
0
CIRCLE
5
108
100
AcDbEntity
8
0
100
AcDbCircle
10
5.4710546594578097e-13
20
243.50000000000009
30
7.1054273576010019e-14
40
10
210
-2.2502061282493156e-31
220
-3.9443045261050586e-31
230
1
0
CIRCLE
5
109
100
AcDbEntity
8
0
100
AcDbCircle
10
24.500000000000611
20
65.500000000000043
30
0
40
7.5
210
-2.2502061282493156e-31
220
-3.9443045261050586e-31
230
1
0
CIRCLE
5
110
100
AcDbEntity
8
0
100
AcDbCircle
10
351.99999999999994
20
210.00000000000014
30
7.1054273576010019e-14
40
5.4999999999999707
210
-2.2502061282493156e-31
220
-3.9443045261050586e-31
230
1
0
CIRCLE
5
111
100
AcDbEntity
8
0
100
AcDbCircle
10
-111.66666666666607
20
-459.99999999999977
30
7.1054273576010019e-14
40
3.2000000000000006
210
-2.2502061282493156e-31
220
-3.9443045261050586e-31
230
1
0
CIRCLE
5
112
100
AcDbEntity
8
0
100
AcDbCircle
10
-111.66666666666593
20
460.00000000000011
30
0
40
3.2000000000000006
210
-2.2502061282493156e-31
220
-3.9443045261050586e-31
230
1
0
CIRCLE
5
113
100
AcDbEntity
8
0
100
AcDbCircle
10
160.00000000000099
20
-72.5
30
0
40
3.2000000000000006
210
-2.2502061282493156e-31
220
-3.9443045261050586e-31
230
1
0
CIRCLE
5
114
100
AcDbEntity
8
0
100
AcDbCircle
10
160.00000000000108
20
247.50000000000014
30
0
40
3.2000000000000006
210
-2.2502061282493156e-31
220
-3.9443045261050586e-31
230
1
0
CIRCLE
5
115
100
AcDbEntity
8
0
100
AcDbCircle
10
384.99999999999994
20
-104.99999999999993
30
0
40
3.2000000000000006
210
-2.2502061282493156e-31
220
-3.9443045261050586e-31
230
1
0
CIRCLE
5
116
100
AcDbEntity
8
0
100
AcDbCircle
10
-384.99999999999909
20
-104.99999999999986
30
0
40
3.2000000000000006
210
-2.2502061282493156e-31
220
-3.9443045261050586e-31
230
1
0
CIRCLE
5
117
100
AcDbEntity
8
0
100
AcDbCircle
10
-384.99999999999915
20
-409.99999999999977
30
0
40
3.2000000000000006
210
-2.2502061282493156e-31
220
-3.9443045261050586e-31
230
1
0
CIRCLE
5
118
100
AcDbEntity
8
0
100
AcDbCircle
10
334.99999999999989
20
-459.99999999999977
30
0
40
3.2000000000000006
210
-2.2502061282493156e-31
220
-3.9443045261050586e-31
230
1
0
CIRCLE
5
119
100
AcDbEntity
8
0
100
AcDbCircle
10
385
20
410.00000000000011
30
7.1054273576010019e-14
40
3.2000000000000006
210
-2.2502061282493156e-31
220
-3.9443045261050586e-31
230
1
0
CIRCLE
5
120
100
AcDbEntity
8
0
100
AcDbCircle
10
-334.99999999999898
20
460.00000000000011
30
7.1054273576010019e-14
40
3.2000000000000006
210
-2.2502061282493156e-31
220
-3.9443045261050586e-31
230
1
0
CIRCLE
5
121
100
AcDbEntity
8
0
100
AcDbCircle
10
-384.99999999999898
20
410.00000000000011
30
7.1054273576010019e-14
40
3.2000000000000006
210
-2.2502061282493156e-31
220
-3.9443045261050586e-31
230
1
0
CIRCLE
5
122
100
AcDbEntity
8
0
100
AcDbCircle
10
335
20
460.00000000000011
30
0
40
3.2000000000000006
210
-2.2502061282493156e-31
220
-3.9443045261050586e-31
230
1
0
CIRCLE
5
123
100
AcDbEntity
8
0
100
AcDbCircle
10
384.99999999999989
20
-409.99999999999977
30
0
40
3.2000000000000006
210
-2.2502061282493156e-31
220
-3.9443045261050586e-31
230
1
0
CIRCLE
5
124
100
AcDbEntity
8
0
100
AcDbCircle
10
-334.99999999999915
20
-459.99999999999977
30
7.1054273576010019e-14
40
3.2000000000000006
210
-2.2502061282493156e-31
220
-3.9443045261050586e-31
230
1
0
CIRCLE
5
125
100
AcDbEntity
8
0
100
AcDbCircle
10
-384.99999999999909
20
210.00000000000014
30
7.1054273576010019e-14
40
3.2000000000000006
210
-2.2502061282493156e-31
220
-3.9443045261050586e-31
230
1
0
CIRCLE
5
126
100
AcDbEntity
8
0
100
AcDbCircle
10
384.99999999999994
20
210.00000000000014
30
7.1054273576010019e-14
40
3.2000000000000006
210
-2.2502061282493156e-31
220
-3.9443045261050586e-31
230
1
0
CIRCLE
5
127
100
AcDbEntity
8
0
100
AcDbCircle
10
-159.99999999999898
20
247.50000000000014
30
7.1054273576010019e-14
40
3.2000000000000006
210
-2.2502061282493156e-31
220
-3.9443045261050586e-31
230
1
0
CIRCLE
5
128
100
AcDbEntity
8
0
100
AcDbCircle
10
-159.99999999999903
20
-72.5
30
0
40
3.2000000000000006
210
-2.2502061282493156e-31
220
-3.9443045261050586e-31
230
1
0
CIRCLE
5
129
100
AcDbEntity
8
0
100
AcDbCircle
10
5.1778390181187882e-13
20
-104.99999999999986
30
0
40
3.2000000000000006
210
-2.2502061282493156e-31
220
-3.9443045261050586e-31
230
1
0
CIRCLE
5
130
100
AcDbEntity
8
0
100
AcDbCircle
10
111.66666666666707
20
460.00000000000011
30
0
40
3.2000000000000006
210
-2.2502061282493156e-31
220
-3.9443045261050586e-31
230
1
0
CIRCLE
5
131
100
AcDbEntity
8
0
100
AcDbCircle
10
111.66666666666693
20
-459.99999999999977
30
7.1054273576010019e-14
40
3.2000000000000006
210
-2.2502061282493156e-31
220
-3.9443045261050586e-31
230
1
0
ENDSEC
0
SECTION
2
OBJECTS
0
DICTIONARY
5
C
100
AcDbDictionary
3
ACAD_GROUP
350
D
3
ACAD_MLINESTYLE
350
17
0
DICTIONARY
5
D
100
AcDbDictionary
0
DICTIONARY
5
1A
330
C
100
AcDbDictionary
0
DICTIONARY
5
17
100
AcDbDictionary
0
ENDSEC
0
EOF
